<?xml version="1.0" standalone="no"?>
<!DOCTYPE svg PUBLIC "-//W3C//DTD SVG 20010904//EN"
 "http://www.w3.org/TR/2001/REC-SVG-20010904/DTD/svg10.dtd">
<svg version="1.0" xmlns="http://www.w3.org/2000/svg"
 width="256.000000pt" height="256.000000pt" viewBox="0 0 256.000000 256.000000"
 preserveAspectRatio="xMidYMid meet">
<metadata>
Created by potrace 1.15, written by Peter Selinger 2001-2017
</metadata>
<g transform="translate(0.000000,256.000000) scale(0.100000,-0.100000)"
fill="#000000" stroke="none">
<path d="M0 1743 l0 -818 30 63 c29 61 93 135 158 180 l32 23 0 -291 c0 -250
2 -297 16 -327 23 -47 78 -83 129 -83 22 0 180 25 350 55 l310 56 150 -7 c161
-7 396 7 530 32 140 26 231 61 281 109 43 40 51 43 147 59 180 30 207 64 207
261 0 73 4 125 10 125 5 0 33 -19 61 -42 56 -46 121 -133 137 -183 7 -20 10
239 11 788 l1 817 -1280 0 -1280 0 0 -817z m1603 525 c22 -13 55 -43 72 -66
27 -40 30 -51 30 -122 0 -71 -3 -82 -30 -122 -75 -106 -221 -127 -320 -45
-100 82 -100 254 -1 333 71 58 168 66 249 22z m-419 -230 c15 -92 68 -173 146
-223 154 -98 362 -37 444 130 20 42 31 55 44 51 9 -3 69 -21 133 -41 198 -59
279 -94 290 -123 6 -15 8 -200 7 -464 -3 -397 -5 -441 -20 -452 -13 -9 -1840
-338 -1870 -336 -4 0 -14 7 -22 16 -14 14 -16 70 -16 474 l0 458 387 276 c359
257 389 276 428 276 42 0 43 0 49 -42z"/>
<path d="M1260 1591 l-825 -147 -3 -152 c-2 -140 -1 -152 15 -152 10 1 392 67
848 148 l830 147 3 153 3 152 -23 -1 c-13 -1 -394 -67 -848 -148z"/>
<path d="M1 393 l-1 -393 1280 0 1280 0 -1 393 c0 344 -2 387 -14 355 -80
-217 -403 -387 -877 -459 -206 -32 -570 -32 -776 0 -474 72 -797 242 -877 459
-12 32 -14 -11 -14 -355z"/>
</g>
</svg>
